<svg xmlns="http://www.w3.org/2000/svg" version="1.1" xmlns:xlink="http://www.w3.org/1999/xlink" xmlns:svgjs="http://svgjs.com/svgjs" width="1440" height="560" preserveAspectRatio="none" viewBox="0 0 1440 560"><g mask="url(&quot;#SvgjsMask1022&quot;)" fill="none"><rect width="1440" height="560" x="0" y="0" fill="rgba(176, 236, 243, 1)"></rect><path d="M1488 560L0 560 L0 295.49Q54.72 278.21, 72 332.92Q106.71 247.63, 192 282.34Q234.26 252.6, 264 294.86Q334.57 245.44, 384 316.01Q473.15 285.16, 504 374.31Q523.96 274.26, 624 294.22Q666.73 264.95, 696 307.68Q763.96 255.64, 816 323.61Q865.53 301.14, 888 350.68Q902.28 292.96, 960 307.24Q1031.41 258.65, 1080 330.07Q1128.47 306.54, 1152 355.01Q1161.55 292.56, 1224 302.11Q1275.95 234.06, 1344 286.02Q1394.15 264.17, 1416 314.33Q1476.49 302.82, 1488 363.32z" fill="rgba(144, 211, 239, 1)"></path><path d="M1560 560L0 560 L0 388.21Q84.91 353.12, 120 438.02Q166.91 364.93, 240 411.84Q269.96 369.8, 312 399.76Q365.97 333.73, 432 387.7Q497 380.69, 504 445.69Q528.17 397.86, 576 422.02Q622.85 348.87, 696 395.72Q754.16 381.88, 768 440.05Q783.54 335.59, 888 351.13Q962.02 305.15, 1008 379.17Q1085.88 337.05, 1128 414.93Q1132.02 346.94, 1200 350.96Q1266.38 297.34, 1320 363.72Q1401.91 325.63, 1440 407.55Q1494.79 342.34, 1560 397.12z" fill="rgba(123, 196, 209, 1)"></path><path d="M1560 560L0 560 L0 477.65Q33.39 391.04, 120 424.43Q173.46 405.89, 192 459.35Q220 415.35, 264 443.35Q346.25 405.6, 384 487.85Q415.96 399.81, 504 431.78Q585 392.77, 624 473.77Q691.73 421.5, 744 489.23Q772.32 397.55, 864 425.87Q942.4 384.27, 984 462.67Q1030.36 437.02, 1056 483.38Q1099.32 406.7, 1176 450.02Q1269.79 423.81, 1296 517.6Q1306.53 456.13, 1368 466.65Q1396.45 423.11, 1440 451.56Q1494.05 385.61, 1560 439.66z" fill="rgba(117, 183, 209, 1)"></path><path d="M1512 560L0 560 L0 563.63Q27.67 519.3, 72 546.97Q121 475.98, 192 524.98Q213.21 474.19, 264 495.4Q309.52 468.92, 336 514.44Q387.98 494.42, 408 546.4Q444.46 462.86, 528 499.31Q579.71 479.02, 600 530.73Q655.15 513.88, 672 569.03Q692.5 469.53, 792 490.04Q862.52 440.56, 912 511.08Q987.27 466.35, 1032 541.62Q1079.23 516.85, 1104 564.08Q1143.78 483.87, 1224 523.65Q1272.59 500.24, 1296 548.82Q1350.38 531.21, 1368 585.59Q1378.08 523.67, 1440 533.75Q1481.26 503.01, 1512 544.27z" fill="rgba(219, 238, 245, 1)"></path></g><defs><mask id="SvgjsMask1022"><rect width="1440" height="560" fill="#ffffff"></rect></mask></defs></svg>